<svg xmlns="http://www.w3.org/2000/svg" viewBox="0 0 192 192" width="192" height="192">
  <defs>
    <linearGradient id="crestGrad" x1="0%" y1="0%" x2="100%" y2="100%">
      <stop offset="0%" style="stop-color:#1e1b4b;stop-opacity:1" />
      <stop offset="100%" style="stop-color:#312e81;stop-opacity:1" />
    </linearGradient>
    <linearGradient id="goldGrad" x1="0%" y1="0%" x2="100%" y2="100%">
      <stop offset="0%" style="stop-color:#fef08a;stop-opacity:1" />
      <stop offset="50%" style="stop-color:#eab308;stop-opacity:1" />
      <stop offset="100%" style="stop-color:#ca8a04;stop-opacity:1" />
    </linearGradient>
  </defs>
  <rect width="192" height="192" rx="42" fill="url(#crestGrad)" />
  <!-- Crest Shield -->
  <path d="M96 34 L146 54 C146 110 96 154 96 154 C96 154 46 110 46 54 Z" fill="none" stroke="url(#goldGrad)" stroke-width="6" stroke-linejoin="round" />
  <!-- Inner Star / Compass -->
  <polygon points="96,58 102,76 120,76 106,87 111,105 96,94 81,105 86,87 72,76 90,76" fill="url(#goldGrad)" />
  <!-- Pillar Lines -->
  <line x1="78" y1="116" x2="78" y2="134" stroke="#ffffff" stroke-width="3" stroke-linecap="round" />
  <line x1="96" y1="112" x2="96" y2="140" stroke="#ffffff" stroke-width="3" stroke-linecap="round" />
  <line x1="114" y1="116" x2="114" y2="134" stroke="#ffffff" stroke-width="3" stroke-linecap="round" />
  <line x1="68" y1="136" x2="124" y2="136" stroke="#ffffff" stroke-width="3" stroke-linecap="round" />
</svg>
